<svg xmlns="http://www.w3.org/2000/svg" viewBox="0 0 64 64"><defs><style>.cls-1{fill:#e1e4ed;}.cls-2{fill:#ade1fa;}.cls-3{fill:#cdd2e1;}.cls-4{fill:#8ed8f8;}.cls-5{fill:#d4effc;}.cls-6{fill:#5ce0bf;}.cls-7{fill:#f26973;}.cls-8{fill:#393045;}</style></defs><title>05-contact</title><g id="_05-contact" data-name="05-contact"><path class="cls-1" d="M50,55v4a4,4,0,0,1-4,4H18a4,4,0,0,1-4-4V55Z"/><path class="cls-1" d="M50,5V9H14V5a4,4,0,0,1,4-4H46A4,4,0,0,1,50,5Z"/><rect class="cls-2" x="14" y="9" width="36" height="46"/><path class="cls-3" d="M20,59V55H14v4a4,4,0,0,0,4,4h6A4,4,0,0,1,20,59Z"/><path class="cls-3" d="M24,1H18a4,4,0,0,0-4,4V9h6V5A4,4,0,0,1,24,1Z"/><rect class="cls-4" x="14" y="9" width="6" height="46"/><rect class="cls-5" x="46" y="9" width="4" height="46"/><rect class="cls-6" x="20" y="17" width="26" height="30" rx="2" ry="2"/><path class="cls-1" d="M41.57,35.85a1.467,1.467,0,0,1,0,2.07l-.82.83-3.63-3.63.82-.83a1.467,1.467,0,0,1,2.07,0Z"/><path class="cls-1" d="M31.71,25.99a1.467,1.467,0,0,1,0,2.07l-.82.83-3.63-3.63.82-.83a1.467,1.467,0,0,1,2.07,0Z"/><path class="cls-7" d="M40.75,38.75l-.31.3a3.226,3.226,0,0,1-2.28.95,3.131,3.131,0,0,1-1.41-.32A22.812,22.812,0,0,1,26.32,29.25,3.131,3.131,0,0,1,26,27.84a3.226,3.226,0,0,1,.95-2.28l.31-.3,3.63,3.63-.74.73a22.8,22.8,0,0,0,6.23,6.23l.74-.73Z"/><path class="cls-8" d="M46,0H18a5.006,5.006,0,0,0-5,5V59a5.006,5.006,0,0,0,5,5H46a5.006,5.006,0,0,0,5-5V5A5.006,5.006,0,0,0,46,0ZM18,2H46a3,3,0,0,1,3,3V8H15V5A3,3,0,0,1,18,2Zm31,8V54H15V10ZM46,62H18a3,3,0,0,1-3-3V56H49v3A3,3,0,0,1,46,62Z"/><rect class="cls-8" x="28" y="58" width="8" height="2"/><rect class="cls-8" x="28" y="4" width="8" height="2"/><path class="cls-8" d="M17,41v2h2v2a3,3,0,0,0,3,3H44a3,3,0,0,0,3-3V19a3,3,0,0,0-3-3H22a3,3,0,0,0-3,3v2H17v2h2v3H17v2h2v3H17v2h2v3H17v2h2v3Zm4-3h2V36H21V33h2V31H21V28h2V26H21V23h2V21H21V19a1,1,0,0,1,1-1H44a1,1,0,0,1,1,1V45a1,1,0,0,1-1,1H22a1,1,0,0,1-1-1V43h2V41H21Z"/><path class="cls-8" d="M36.3,40.575A4.115,4.115,0,0,0,38.16,41a4.187,4.187,0,0,0,2.976-1.232l1.141-1.141a2.467,2.467,0,0,0,0-3.484l-1.56-1.56a2.523,2.523,0,0,0-3.488,0l-.958.967a21.768,21.768,0,0,1-4.818-4.815l.139-.137.009-.009.816-.825a2.466,2.466,0,0,0,0-3.485l-1.56-1.56a2.468,2.468,0,0,0-3.488,0l-1.126,1.126A4.2,4.2,0,0,0,25,27.84a4.1,4.1,0,0,0,.424,1.852A23.758,23.758,0,0,0,36.3,40.575Zm2.672-5.712A.461.461,0,0,1,39.3,35l1.56,1.56a.471.471,0,0,1,0,.66l-.114.114-2.216-2.216L38.647,35A.463.463,0,0,1,38.976,34.863ZM35.822,36.68a1,1,0,0,0,1.26-.118l.033-.033,2.148,2.148a2.26,2.26,0,0,1-2.071.106A21.783,21.783,0,0,1,27.214,28.8,2.126,2.126,0,0,1,27,27.84a2.194,2.194,0,0,1,.311-1.115l2.161,2.16-.024.024a1,1,0,0,0-.128,1.269A23.767,23.767,0,0,0,35.822,36.68ZM29.115,25a.463.463,0,0,1,.328.136L31,26.7a.46.46,0,0,1,.135.327.467.467,0,0,1-.139.332l-.114.114-2.216-2.216.118-.118A.465.465,0,0,1,29.115,25Z"/></g></svg>